<?xml version="1.0" encoding="UTF-8"?>
<svg id="Layer_2" data-name="Layer 2" xmlns="http://www.w3.org/2000/svg" viewBox="0 0 400 400">
  <defs>
    <style>
      .cls-1 {
        fill: #323133;
      }

      .cls-2 {
        fill: #f2bb5e;
      }

      .cls-3 {
        stroke: #392114;
        stroke-width: 1.8855px;
      }

      .cls-3, .cls-4 {
        fill: #e06459;
      }

      .cls-3, .cls-4, .cls-5, .cls-6, .cls-7, .cls-8, .cls-9 {
        stroke-miterlimit: 10;
      }

      .cls-10 {
        fill: #dd9099;
      }

      .cls-11 {
        fill: #707070;
      }

      .cls-12 {
        fill: #4a7345;
      }

      .cls-13 {
        fill: #ebebeb;
      }

      .cls-14 {
        fill: #b48763;
      }

      .cls-15 {
        fill: #7bb26a;
      }

      .cls-16 {
        fill: #ccc;
      }

      .cls-17 {
        fill: #3f2011;
      }

      .cls-18 {
        fill: #231c19;
      }

      .cls-19 {
        fill: #5989c3;
      }

      .cls-20, .cls-5, .cls-6 {
        fill: #333233;
      }

      .cls-4 {
        stroke: #3f2011;
      }

      .cls-21 {
        fill: #fff;
      }

      .cls-22, .cls-7 {
        fill: #565656;
      }

      .cls-23 {
        fill: #3b2112;
      }

      .cls-5, .cls-6, .cls-7, .cls-8, .cls-9 {
        stroke: #000;
      }

      .cls-5, .cls-7, .cls-9 {
        stroke-width: 2.3949px;
      }

      .cls-6 {
        stroke-width: 3px;
      }

      .cls-24 {
        fill: #f6bdc0;
      }

      .cls-25 {
        fill: #b3d7ef;
      }

      .cls-26 {
        fill: #f5eaae;
      }

      .cls-8 {
        stroke-width: 2.5025px;
      }

      .cls-8, .cls-9 {
        fill: none;
      }

      .cls-27 {
        fill: #1e1f1e;
      }
    </style>
  </defs>
  <ellipse class="cls-16" cx="200" cy="298.2252" rx="125" ry="15"/>
  <g>
    <path class="cls-7" d="M288.7098,222.6248c0-23.2982-38.8924-53.2154-86.8686-53.2154s-86.8686,29.9172-86.8686,53.2154c0,11.8669,10.0943,22.5873,26.3355,30.2524l4.9324,46.8776s34.5069-14.1012,54.5837-14.6243c38.8125-1.0111,56.9569,14.6243,56.9569,14.6243l3.0637-46.1729c17.1348-7.7055,27.8649-18.7219,27.8649-30.9571Z"/>
    <path class="cls-5" d="M293.3791,190.9982s-2.3732,7.2504-4.7464,9.6673c-2.3732,2.4168-9.4928,7.2504-9.4928,7.2504l-4.7464-7.2504s7.1196-2.4168,9.4928-4.8336l9.4928-9.6673v4.8336Z"/>
    <path class="cls-20" d="M255.8531,255.6636c20.0188-7.7282,32.8567-19.6548,32.8567-33.0389,0-16.8456-20.3352-37.1487-49.7328-47.1043l-66.6312,10.644s47.4641,19.3345,71.1961,24.1682c23.732,4.8336,21.3588,14.5009,21.3588,24.1682,0,8.4038-7.1725,18.6323-9.0476,21.1628Z"/>
    <path class="cls-9" d="M288.7097,222.6248c0,23.2982-38.8924,42.1851-86.8685,42.1851s-86.8685-18.8869-86.8685-42.1851,38.8924-53.2154,86.8685-53.2154,86.8685,29.9172,86.8685,53.2154Z"/>
    <polygon class="cls-22" points="173.8394 259.8402 176.2864 265.1107 160.0041 263.4166 153.6983 260.7813 149.463 253.9108 173.8394 259.8402"/>
    <ellipse class="cls-11" cx="202.6268" cy="244.9963" rx="33.2248" ry="35.0438"/>
    <path class="cls-5" d="M298.1255,166.83s7.1196,9.6673,4.7464,19.3345c-2.3732,9.6673-9.4928,7.2504-14.2392,4.8336-4.7464-2.4168-4.7464-9.6673,0-14.5009,4.7464-4.8336,9.4928-9.6673,9.4928-9.6673Z"/>
    <ellipse class="cls-20" cx="269.4177" cy="129.5603" rx="11.6556" ry="7.1595" transform="translate(-22.3132 64.2543) rotate(-13.0644)"/>
    <path d="M266.9151,138.1461c-1.6909,0-3.3021-.2415-4.7391-.722-2.8358-.9486-4.6862-2.7154-5.2106-4.9742h0c-.5241-2.2591.3592-4.6601,2.4876-6.7606,1.985-1.9591,4.8587-3.4514,8.0914-4.2015,6.9835-1.6205,13.2753.6562,14.3256,5.1829.5241,2.2591-.3592,4.6601-2.4876,6.7606-1.985,1.9591-4.8587,3.4514-8.0914,4.2015-1.4766.3425-2.9544.5133-4.376.5133ZM271.8879,123.2369c-1.227,0-2.5233.1434-3.8335.4475-2.8326.6572-5.3248,1.9393-7.0172,3.6099-1.5495,1.5292-2.2153,3.179-1.8749,4.6456h0c.3403,1.4668,1.6648,2.655,3.7291,3.3457,2.2556.7543,5.0569.8082,7.89.1505,2.8326-.6572,5.3248-1.9393,7.0172-3.6099,1.5495-1.5292,2.2153-3.179,1.8749-4.6456-.5647-2.4345-3.8071-3.9436-7.7855-3.9436Z"/>
    <ellipse class="cls-20" cx="134.5761" cy="129.5024" rx="7.1595" ry="11.6556" transform="translate(-21.9948 231.3217) rotate(-76.9356)"/>
    <path d="M137.1226,138.096c-1.4091,0-2.8979-.1681-4.4198-.5212-3.2329-.7502-6.1066-2.2424-8.0916-4.2015-2.1282-2.1005-3.0114-4.5015-2.4874-6.7606.5243-2.2588,2.3748-4.0254,5.2106-4.974,2.6447-.8847,5.8817-.9591,9.1151-.2087,6.9823,1.6202,11.6291,6.4354,10.5787,10.9621h0c-.8216,3.5397-4.8494,5.7038-9.9056,5.7038ZM132.0689,123.1697c-1.4441,0-2.8101.2031-4.0193.6075-2.0643.6905-3.3887,1.8786-3.7291,3.3454-.3403,1.4666.3254,3.1167,1.8747,4.6459,1.6927,1.6704,4.1847,2.9525,7.0175,3.6097,5.5585,1.2909,10.8792-.311,11.6188-3.4959h0c.7392-3.1849-3.3329-6.9656-8.8919-8.2555-1.3139-.3051-2.6214-.4571-3.8707-.4571Z"/>
    <path class="cls-22" d="M274.8801,140.4709c2.8556,13.6006,5.181,33.1898-1.4958,43.6845-12.9406,20.3404-45.5607,26.1802-72.5289,26.1802-27.7663,0-57.6087.2423-70.2761-21.1039-5.9839-10.0836-4.9448-37.2546-1.5823-48.7609,10.6725-36.5213,19.4167-62.5085,70.9583-61.5856,54.2666.9718,67.0559,24.1082,74.9248,61.5855Z"/>
    <path class="cls-20" d="M274.8801,140.4709c-7.8689-37.4773-20.6583-60.6137-74.9249-61.5855-11.7363-.2102-21.2528.9755-29.0791,3.3625,50.0865,2.5867,62.5175,23.6187,70.2978,56.7764,2.9546,12.5918,5.3606,30.728-1.5476,40.4443-13.389,18.8317-47.1395,24.2384-75.0422,24.2384-5.8783,0-11.8464.0091-17.7339-.1452,14.801,6.8881,34.8947,6.7739,54.0053,6.7739,26.9682,0,59.5883-5.8399,72.5289-26.1803,6.6768-10.4948,4.3514-30.0839,1.4958-43.6845Z"/>
    <path d="M199.0064,211.4633c-13.5148,0-27.4294-.0568-39.6029-2.6601-14.2743-3.0525-24.0199-9.266-29.7939-18.996-3.7687-6.3507-4.4083-18.0222-4.4538-24.4143-.067-9.3671,1.0159-19.2737,2.7589-25.2383,5.7616-19.716,10.5975-34.5049,20.4016-45.2769,11.0247-12.1135,27.4365-17.558,51.6592-17.1196,26.1299.4678,43.8049,6.0031,55.6246,17.4195,12.0401,11.6293,16.9123,28.5314,20.3833,45.0615h0c5.4714,26.0568,2.1238,38.5931-1.6479,44.5216-6.0527,9.5136-16.6936,16.6434-31.627,21.1909-14.9586,4.5551-31.0163,5.5113-41.8531,5.5113h-.9251c-.3076,0-.6158.0002-.9239.0002ZM197.3326,79.9892c-22.0997,0-37.1865,5.2407-47.3488,16.4063-9.4784,10.4145-14.2288,24.9682-19.9047,44.3919-3.4289,11.7331-4.148,38.4028,1.4698,47.8689,5.4354,9.1594,14.701,15.0281,28.3261,17.9419,12.2178,2.6126,26.3675,2.6104,40.055,2.6099h.9254c10.6837,0,26.5033-.9393,41.1964-5.4136,14.4037-4.3863,24.6254-11.1972,30.3811-20.2443,6.7647-10.6325,3.7455-31.4092,1.3435-42.8475h0c-3.3968-16.179-8.1398-32.6957-19.743-43.903-11.3839-10.9956-28.574-16.33-54.0986-16.7871-.8772-.0157-1.7465-.0235-2.6023-.0235Z"/>
    <ellipse class="cls-24" cx="258.4359" cy="166.682" rx="11.9628" ry="9.6473"/>
    <path class="cls-21" d="M249.7931,164.9012c-.1669,0-.3359-.0418-.4911-.1297-.4796-.2716-.6513-.8767-.3829-1.3577.0673-.1201.7-1.2116,2.2388-2.4981,1.5197-1.2708,3.2517-1.5791,3.3246-1.5916.5434-.0927,1.0634.2731,1.1571.8184.0932.5444-.2711,1.0611-.8145,1.1563-.0303.0056-1.2975.2481-2.3817,1.1544-1.2571,1.0514-1.7719,1.9339-1.7771,1.9427-.1857.3232-.5248.505-.8732.5053Z"/>
    <ellipse class="cls-24" cx="145.5579" cy="166.682" rx="11.9628" ry="9.6473"/>
    <path class="cls-21" d="M136.9151,164.9012c-.1669,0-.3359-.0418-.4911-.1297-.4796-.2716-.6513-.8767-.3829-1.3577.0673-.1201.7-1.2116,2.2388-2.4981,1.5197-1.2708,3.2517-1.5791,3.3246-1.5916.5449-.0927,1.0636.2731,1.1571.8184.0932.5444-.2711,1.0611-.8145,1.1563-.0303.0056-1.2975.2481-2.3817,1.1544-1.2571,1.0514-1.7719,1.9339-1.7771,1.9427-.1857.3232-.5248.505-.8732.5053Z"/>
    <circle cx="162.198" cy="148.305" r="12.0068"/>
    <circle class="cls-21" cx="162.5959" cy="151.842" r="3.4519"/>
    <polygon class="cls-1" points="148.5286 126.5746 243.3237 139.8394 238.0301 126.5746 148.5286 126.5746"/>
    <path d="M153.6503,141.2887c-.0536,0-.1077-.0044-.1622-.0132-.093-.0152-.9498-.1664-2.4335-.802-1.5896-.6814-2.6503-1.8059-2.6946-1.8534-.3778-.4047-.356-1.0389.0487-1.4164.4047-.378,1.0389-.356,1.4164.0487.0061.0064.8302.8693,2.019,1.3787,1.2557.538,1.9652.6658,1.9721.667.5432.0949.9104.6112.8184,1.1546-.0827.4891-.5043.836-.9843.836Z"/>
    <circle cx="241.7958" cy="148.305" r="12.0068"/>
    <circle class="cls-21" cx="241.0583" cy="151.842" r="3.4519"/>
    <path d="M250.3434,141.2887c-.4825,0-.9077-.3494-.988-.8412-.0888-.5444.2794-1.058.8228-1.1495.023-.0042.7306-.1353,1.9718-.667,1.1886-.5094,2.0127-1.3724,2.021-1.3809.379-.4013,1.0129-.4213,1.4154-.0431.4025.378.4243,1.0093.0475,1.413-.0443.0475-1.1049,1.172-2.6943,1.8534-1.4839.6357-2.3408.7869-2.4338.802-.0546.0088-.1089.0132-.1625.0132Z"/>
    <ellipse class="cls-24" cx="201.9969" cy="181.2325" rx="41.5867" ry="26.9077"/>
    <ellipse cx="185.8809" cy="171.8446" rx="6.0085" ry="3.4704" transform="translate(-35.74 49.5072) rotate(-13.8538)"/>
    <ellipse cx="218.1129" cy="171.8446" rx="3.4704" ry="6.0085" transform="translate(-.9588 342.4652) rotate(-76.1462)"/>
    <path class="cls-10" d="M224.8768,158.762c4.8221,5.0196,7.6885,11.2906,7.6885,18.0949,0,18.7334-24.3091,27.4978-45.0321,27.4978-3.1318,0-6.0007-.2533-8.6177-.7375,6.6039,2.8564,14.5415,4.5229,23.0814,4.5229,22.9677,0,41.5867-12.047,41.5867-26.9077,0-9.3911-7.4372-17.6569-18.7068-22.4705Z"/>
    <path class="cls-21" d="M206.1709,154.4593c-1.3729-.0885-2.7651-.1344-4.174-.1344-22.5801,0-40.956,11.6439-41.5699,26.1578,5.7139-13.278,25.3934-25.0372,45.7439-26.0233Z"/>
    <path d="M201.9968,209.2676c-11.323,0-21.9837-2.8632-30.0188-8.062-8.1868-5.2969-12.6954-12.3903-12.6954-19.9732s4.5086-14.676,12.6954-19.973c8.0351-5.1988,18.6958-8.062,30.0188-8.062s21.9837,2.8632,30.0188,8.062c8.1868,5.2969,12.6954,12.3903,12.6954,19.973s-4.5086,14.6763-12.6954,19.9732c-8.0351,5.1988-18.6958,8.062-30.0188,8.062ZM201.9968,155.4524c-22.3093,0-40.4592,11.565-40.4592,25.78s18.1499,25.7803,40.4592,25.7803,40.4592-11.565,40.4592-25.7803-18.1499-25.78-40.4592-25.78Z"/>
    <polygon class="cls-22" points="239.8637 255.6945 246.7427 247.6474 251.4152 236.7448 252.8429 220.9102 260.3708 243.7536 257.2558 257.1222 241.8106 259.9776 239.8637 255.6945"/>
    <path class="cls-9" d="M251.6748,217.5356s.082,20.5181-3.0268,26.8549c-3.1089,6.3368-10.5357,13.0824-10.5357,13.0824l2.1366,2.8539s12.9769-2.4836,22.281-6.9614"/>
    <path class="cls-6" d="M241.7364,256.3412c-4.0062-6.0843-13.105-7.0211-20.3228-2.0923-5.4132,3.6964-8.2277,9.6415-7.608,14.95.0744.6372.5932,1.1235,1.2233,1.1235h5.8703c.5113,0,.8551.5337.6515,1.0114l-2.1713,5.0932c-.2623.6152-.0004,1.329.5901,1.6261,4.5477,2.2876,10.7398,1.7881,15.9517-1.7709,7.2178-4.9288,9.8213-13.8566,5.8152-19.9409Z"/>
    <path class="cls-20" d="M290.2001,251.7396l-4.7873,1.3198c-1.8756.5171-3.8077-.6122-4.3155-2.5223l-1.317-4.9543c-.2975-1.1193-1.2559-1.9411-2.3925-2.0099-9.8096-.5933-20.5835,5.516-27.0735,16.3891-8.6663,14.5191-6.4119,32.0336,5.0353,39.1197,11.4472,7.0861,27.7523,1.0604,36.4186-13.4587,6.6723-11.1784,6.8696-24.1311,1.3835-32.7342-.6344-.9949-1.8273-1.4592-2.9516-1.1493Z"/>
    <path class="cls-27" d="M296.2494,260.3268c-1.5888,6.2562-5.9414,19.2376-16.2277,28.5089-6.6976,6.0367-18.0729,9.0502-24.5113,10.3422,11.4387,6.9318,27.6319.8969,36.2578-13.5547,4.9478-8.2894,6.3317-17.5529,4.4812-25.2964Z"/>
    <path class="cls-9" d="M290.2001,251.7396l-4.7873,1.3198c-1.8756.5171-3.8077-.6122-4.3155-2.5223l-1.317-4.9543c-.2975-1.1193-1.2559-1.9411-2.3925-2.0099-9.8096-.5933-20.5835,5.516-27.0735,16.3891-8.6663,14.5191-6.4119,32.0336,5.0353,39.1197,11.4472,7.0861,27.7523,1.0604,36.4186-13.4587,6.6723-11.1784,6.8696-24.1311,1.3835-32.7342-.6344-.9949-1.8273-1.4592-2.9516-1.1493Z"/>
    <path d="M141.457,270.7217l-.0481,1.8423-2.784-.0372c-.0445-.3565.172-1.2312.5693-1.3169l2.2629-.4881Z"/>
    <path class="cls-22" d="M230.6509,253.4755s5.2707-.5648,8.4707,3.9529.7529,10.7295.7529,10.7295c0,0-1.0941-5.7766-3.3529-8.9766s-5.8707-5.7058-5.8707-5.7058Z"/>
    <g>
      <path class="cls-23" d="M152.3086,325.235h7.2754l10.2197,17.041h-6.2363l-1.9053-3.4326h-11.4326l-1.9053,3.4326h-6.2646l10.249-17.041ZM159.9307,335.7477l-2.6279-4.6807c-.3174-.5996-.9814-2.04-1.3281-2.9287h-.0859c-.3174.8887-.9814,2.3291-1.2998,2.9287l-2.627,4.6807h7.9688Z"/>
      <path class="cls-23" d="M173.5781,342.2761v-17.041h13.9434c5.3408,0,8.5459,2.1357,8.5459,5.6641,0,3.6484-3.4062,5.9766-8.6895,5.9766h-7.9688v5.4004h-5.8311ZM186.0781,333.6354c2.4541,0,3.8691-.96,3.8691-2.6162,0-1.6318-1.3857-2.5439-3.8398-2.5439h-6.6982v5.1602h6.6689Z"/>
      <path class="cls-23" d="M199.9297,325.235h8.6895l5.3125,10.3203c.2881.6963.5771,1.2959.6924,1.8486h.0576c.1152-.5527.4043-1.1768.7217-1.8721l5.2549-10.2969h8.8916v17.041h-5.3125v-10.8486c0-.8887.0869-1.9922.2598-2.9043h-.1152c-.1445.4795-.7217,1.7764-1.2119,2.7119l-5.9473,11.041h-5.457l-5.7451-11.0166c-.4902-1.0088-.8652-2.0645-1.0967-2.7363h-.1152c.1729.8398.2021,1.8955.2021,2.9043v10.8486h-5.0811v-17.041Z"/>
      <path class="cls-23" d="M256.4756,338.8913v3.3848h-20.9014v-17.041h20.6992v3.3838h-14.8682v3.4326h14.377v3.168h-14.377v3.6719h15.0703Z"/>
      <path class="cls-23" d="M79.417,349.1306h4.2412l5.958,9.9453h-3.6348l-1.1113-2.0029h-6.665l-1.1104,2.0029h-3.6523l5.9746-9.9453ZM83.8604,355.2663l-1.5312-2.7324c-.1855-.3496-.5723-1.1904-.7744-1.708h-.0508c-.1846.5176-.5723,1.3584-.7568,1.708l-1.5322,2.7324h4.6455Z"/>
      <path class="cls-23" d="M91.8281,349.1306h3.6182l6.2441,5.6445c.3535.3223.707.7432.9424,1.1348h.0674v-6.7793h3.0801v9.9453h-3.3828l-6.4795-5.7148c-.3369-.3086-.7744-.8125-.9434-1.1348h-.0674v6.8496h-3.0791v-9.9453Z"/>
      <path class="cls-23" d="M107.7549,356.8766l2.4238-1.415c.9932,1.1631,2.8271,1.9473,5.2852,1.9473,2.1709,0,3.1807-.3643,3.1807-1.1484,0-.6162-.5049-.8682-1.9355-.9941l-3.6689-.3369c-2.9287-.2656-4.3428-1.1621-4.3428-2.9971,0-1.9756,2.3232-3.1377,6.4131-3.1377,3.0127,0,5.3857.6582,6.8662,2.0449l-2.1543,1.499c-.875-.9805-2.5918-1.583-4.8809-1.583-1.8682,0-2.8613.3643-2.8613,1.0361,0,.6162.4883.8545,2.0371.9951l3.2988.2656c3.2988.2803,4.6445,1.0928,4.6445,2.9414,0,2.1992-2.457,3.418-6.7822,3.418-3.5342,0-6.2949-.9658-7.5234-2.5352Z"/>
      <path class="cls-23" d="M124.5918,359.0759v-9.9453h3.3994v9.9453h-3.3994Z"/>
      <path class="cls-23" d="M131.4941,349.1306h9.1553c2.9619,0,4.2578,1.0928,4.2578,2.5215,0,1.0088-.7402,1.9189-2.3555,2.1992,1.8174.2236,2.6592,1.0928,2.6592,2.3955,0,1.4561-1.1953,2.8291-4.4941,2.8291h-9.2227v-9.9453ZM139.707,353.1511c1.3965,0,1.6826-.5889,1.6826-1.1494,0-.4902-.3359-1.0225-1.6826-1.0225h-4.8135v2.1719h4.8135ZM139.8584,357.2272c1.2959,0,1.835-.5186,1.835-1.2051s-.5557-1.1621-1.8184-1.1621h-4.9814v2.3672h4.9648Z"/>
      <path class="cls-23" d="M147.9102,349.1306h3.3994v7.7324h8.0957v2.2129h-11.4951v-9.9453Z"/>
      <path class="cls-23" d="M174.0342,357.1013v1.9746h-12.1846v-9.9453h12.0674v1.9746h-8.668v2.0039h8.3818v1.8486h-8.3818v2.1436h8.7852Z"/>
      <path class="cls-23" d="M184.3438,359.0759v-9.9453h8.1289c3.1133,0,4.9814,1.2471,4.9814,3.3057,0,2.1289-1.9863,3.4883-5.0654,3.4883h-4.6455v3.1514h-3.3994ZM191.6309,354.0329c1.4307,0,2.2549-.5596,2.2549-1.5264,0-.9531-.8076-1.4854-2.2383-1.4854h-3.9043v3.0117h3.8877Z"/>
      <path class="cls-23" d="M198.9912,354.1032c0-3.2217,3.1475-5.3086,8.0107-5.3086,4.8477,0,8.0117,2.0869,8.0117,5.3086s-3.1309,5.3086-8.0117,5.3086c-4.8633,0-8.0107-2.1006-8.0107-5.3086ZM207.002,357.3112c2.6602,0,4.4434-1.2891,4.4434-3.208s-1.7832-3.208-4.4434-3.208-4.4424,1.2891-4.4424,3.208,1.7832,3.208,4.4424,3.208Z"/>
      <path class="cls-23" d="M217.3428,349.1306h3.3994v7.7324h8.0957v2.2129h-11.4951v-9.9453Z"/>
      <path class="cls-23" d="M231.2832,359.0759v-9.9453h3.3994v9.9453h-3.3994Z"/>
      <path class="cls-23" d="M236.9902,354.1452c0-3.1514,3.248-5.3506,7.9609-5.3506,3.8877,0,6.6982,1.4004,7.4893,3.7256l-3.5176.5186c-.4541-1.3584-1.8516-2.1016-4.0059-2.1016-2.6924,0-4.3584,1.2188-4.3584,3.166,0,1.9189,1.6992,3.166,4.3926,3.166,2.1201,0,3.501-.7012,4.0059-2.0176l3.4668.6162c-.9932,2.2559-3.7031,3.5439-7.6074,3.5439-4.7803,0-7.8262-2.0732-7.8262-5.2666Z"/>
      <path class="cls-23" d="M258.3545,355.6999l-5.958-6.5693h3.8535l3.4502,4.0479c.2363.2949.3535.4062.4043.5469h.0332c.0508-.1406.1348-.252.3877-.5469l3.585-4.0479h3.6523l-6.0088,6.5693v3.376h-3.3994v-3.376Z"/>
      <path class="cls-23" d="M281.7559,349.1306h4.2412l5.958,9.9453h-3.6348l-1.1113-2.0029h-6.665l-1.1104,2.0029h-3.6523l5.9746-9.9453ZM286.1992,355.2663l-1.5312-2.7324c-.1855-.3496-.5723-1.1904-.7744-1.708h-.0508c-.1846.5176-.5723,1.3584-.7568,1.708l-1.5322,2.7324h4.6455Z"/>
      <path class="cls-23" d="M294.167,349.1306h3.6182l6.2441,5.6445c.3535.3223.707.7432.9424,1.1348h.0674v-6.7793h3.0801v9.9453h-3.3828l-6.4795-5.7148c-.3369-.3086-.7744-.8125-.9434-1.1348h-.0674v6.8496h-3.0791v-9.9453Z"/>
      <path class="cls-23" d="M311.626,349.1306h7.5898c4.3926,0,7.2041,1.6953,7.2041,4.8047,0,3.0957-2.9795,5.1406-7.2539,5.1406h-7.54v-9.9453ZM318.7275,357.1569c2.5586,0,4.124-1.1768,4.124-3.1797,0-1.9336-1.7002-2.9277-4.1572-2.9277h-3.6689v6.1074h3.7021Z"/>
      <path class="cls-23" d="M55.2666,365.9304h5.0654l3.0967,6.0234c.1689.4062.3369.7559.4043,1.0781h.0332c.0674-.3223.2363-.6865.4209-1.0928l3.0635-6.0088h5.1836v9.9453h-3.0967v-6.3311c0-.5186.0508-1.1631.1514-1.6953h-.0674c-.084.2803-.4209,1.0361-.707,1.583l-3.4668,6.4434h-3.1807l-3.3496-6.4297c-.2861-.5879-.5049-1.2041-.6396-1.5967h-.0674c.1016.4902.1182,1.1064.1182,1.6953v6.3311h-2.9619v-9.9453Z"/>
      <path class="cls-23" d="M74.8643,370.903c0-3.2217,3.1475-5.3086,8.0107-5.3086,4.8477,0,8.0117,2.0869,8.0117,5.3086s-3.1309,5.3086-8.0117,5.3086c-4.8633,0-8.0107-2.1006-8.0107-5.3086ZM82.875,374.111c2.6602,0,4.4434-1.2891,4.4434-3.208s-1.7832-3.208-4.4434-3.208-4.4424,1.2891-4.4424,3.208,1.7832,3.208,4.4424,3.208Z"/>
      <path class="cls-23" d="M93.2158,365.9304h7.5898c4.3926,0,7.2041,1.6953,7.2041,4.8047,0,3.0957-2.9795,5.1406-7.2539,5.1406h-7.54v-9.9453ZM100.3174,373.9567c2.5586,0,4.124-1.1768,4.124-3.1797,0-1.9336-1.7002-2.9277-4.1572-2.9277h-3.6689v6.1074h3.7021Z"/>
      <path class="cls-23" d="M122.5234,373.9011v1.9746h-12.1846v-9.9453h12.0674v1.9746h-8.668v2.0039h8.3818v1.8486h-8.3818v2.1436h8.7852Z"/>
      <path class="cls-23" d="M125.5752,365.9304h8.1455c3.8369,0,4.9482,1.6387,4.9482,3.1514,0,1.1064-.6729,2.4092-2.6934,2.9414l3.1309,3.8525h-3.8203l-2.8281-3.5156h-3.4834v3.5156h-3.3994v-9.9453ZM132.9463,370.5524c1.6494,0,2.1377-.6855,2.1377-1.3867,0-.6865-.4883-1.3447-2.1211-1.3447h-3.9883v2.7314h3.9717Z"/>
      <path class="cls-23" d="M141.5869,365.9304h3.6182l6.2441,5.6445c.3535.3223.707.7432.9424,1.1348h.0674v-6.7793h3.0801v9.9453h-3.3828l-6.4795-5.7148c-.3369-.3086-.7744-.8125-.9434-1.1348h-.0674v6.8496h-3.0791v-9.9453Z"/>
      <path class="cls-23" d="M159.0459,375.8757v-9.9453h3.3994v9.9453h-3.3994Z"/>
      <path class="cls-23" d="M173.7578,367.8776h-8.2129v-1.9473h12.7236v1.835l-8.4824,6.1631h8.8027v1.9473h-13.3135v-1.835l8.4824-6.1631Z"/>
      <path class="cls-23" d="M186.0156,365.9304h4.2412l5.958,9.9453h-3.6348l-1.1113-2.0029h-6.665l-1.1104,2.0029h-3.6523l5.9746-9.9453ZM190.459,372.0651l-1.5312-2.7314c-.1855-.3496-.5723-1.1904-.7744-1.708h-.0508c-.1846.5176-.5723,1.3584-.7568,1.708l-1.5322,2.7314h4.6455Z"/>
      <path class="cls-23" d="M194.7051,365.9304h13.3467v2.1992h-4.9648v7.7461h-3.3994v-7.7461h-4.9824v-2.1992Z"/>
      <path class="cls-23" d="M210.1953,375.8757v-9.9453h3.3994v9.9453h-3.3994Z"/>
      <path class="cls-23" d="M215.9023,370.903c0-3.2217,3.1475-5.3086,8.0107-5.3086,4.8477,0,8.0117,2.0869,8.0117,5.3086s-3.1309,5.3086-8.0117,5.3086c-4.8633,0-8.0107-2.1006-8.0107-5.3086ZM223.9131,374.111c2.6602,0,4.4434-1.2891,4.4434-3.208s-1.7832-3.208-4.4434-3.208-4.4424,1.2891-4.4424,3.208,1.7832,3.208,4.4424,3.208Z"/>
      <path class="cls-23" d="M234.2539,365.9304h3.6182l6.2441,5.6445c.3535.3223.707.7432.9424,1.1348h.0674v-6.7793h3.0801v9.9453h-3.3828l-6.4795-5.7148c-.3369-.3086-.7744-.8125-.9434-1.1348h-.0674v6.8496h-3.0791v-9.9453Z"/>
      <path class="cls-23" d="M271.1543,373.9011v1.9746h-12.1846v-9.9453h12.0674v1.9746h-8.668v2.0039h8.3818v1.8486h-8.3818v2.1436h8.7852Z"/>
      <path class="cls-23" d="M274.207,365.9304h3.6182l6.2441,5.6445c.3535.3223.707.7432.9424,1.1348h.0674v-6.7793h3.0801v9.9453h-3.3828l-6.4795-5.7148c-.3369-.3086-.7744-.8125-.9434-1.1348h-.0674v6.8496h-3.0791v-9.9453Z"/>
      <path class="cls-23" d="M290.4707,371.0153c0-3.1104,3.0459-5.4209,7.9443-5.4209,3.7695,0,6.5801,1.2461,7.3203,3.249l-3.6689.5049c-.4541-.9805-1.6992-1.709-3.7529-1.709-2.7266,0-4.292,1.3164-4.292,3.3477,0,1.9326,1.5996,3.25,4.3262,3.25,2.5918,0,4.1064-1.0088,4.207-2.1152v-.042h-4.5107v-1.751h7.6748v5.5469h-2.5918l-.1514-1.709c-.7568,1.0371-2.457,2.0449-5.4863,2.0449-4.376,0-7.0186-2.1992-7.0186-5.1963Z"/>
      <path class="cls-23" d="M308.6543,375.8757v-9.9453h3.3994v9.9453h-3.3994Z"/>
      <path class="cls-23" d="M315.5566,365.9304h3.6182l6.2441,5.6445c.3535.3223.707.7432.9424,1.1348h.0674v-6.7793h3.0801v9.9453h-3.3828l-6.4795-5.7148c-.3369-.3086-.7744-.8125-.9434-1.1348h-.0674v6.8496h-3.0791v-9.9453Z"/>
      <path class="cls-23" d="M345.2012,373.9011v1.9746h-12.1846v-9.9453h12.0674v1.9746h-8.668v2.0039h8.3818v1.8486h-8.3818v2.1436h8.7852Z"/>
    </g>
    <g>
      <path class="cls-13" d="M275.3586,102.9363c3.2132,1.9219,4.1542,5.7157,2.1321,8.6387l-5.6056,7.6076-4.4845,6.0961c-1.5115,2.1822-4.2042,3.5135-7.1171,3.5135h-116.5669c-2.9029,0-5.6056-1.3313-7.1171-3.5135l-4.1842-5.6857-.7508-1.021-5.1552-6.997c-2.022-2.9229-1.0811-6.7167,2.1321-8.6387l8.7788-5.2453.5205.02-.2302,5.3253c-.0701,1.8719,1.5315,3.4735,3.6637,3.6637l36.0662,3.1632,1.7518.1502,19.5896,1.7217c2.2022.1902,4.4144.1902,6.6166,0l18.8689-1.6617,2.4725-.2202,35.9961-3.1532c2.1622-.1902,3.7938-1.8118,3.7337-3.7237l-.2302-5.2753.3403-.01,8.7788,5.2453Z"/>
      <path class="cls-16" d="M266.4696,102.9763c.0601,1.9119-1.5716,3.5335-3.7337,3.7237l-35.9961,3.1532-.0601-.6607-3.2232-31.1112-7.1372-36.3765.7107-.1401c27.4876,3.023,46.7569,20.6607,48.7489,45.6057l.4605,10.5306.2302,5.2753Z"/>
      <path class="cls-16" d="M226.6797,109.1925l.0601.6607-2.4725.2202-18.8689,1.6617c-2.2022.1902-4.4144.1902-6.6166,0l-19.5896-1.7217-1.7518-.1502.0601-.6707,3.2232-31.1112h42.7328l3.2232,31.1112Z"/>
      <polygon class="cls-13" points="216.3194 41.7049 227.7569 109.8054 200.9334 112.2054 202.0001 34.5225 207.7508 35.5287 215.3884 36.9401 216.3194 41.7049"/>
      <path class="cls-13" d="M187.9809,41.815l-7.2573,36.2664-3.2232,31.1112-.0601.6707-36.0662-3.1632c-2.1321-.1902-3.7337-1.7918-3.6637-3.6637l.2302-5.3253.4605-10.5406c2.2623-23.944,21.1312-42.4526,48.4886-45.5757l1.0911.2202Z"/>
      <path class="cls-8" d="M217.0301,41.5647c27.4876,3.023,46.7569,20.6607,48.7489,45.6057l.4605,10.5306.2302,5.2753c.0601,1.9119-1.5716,3.5335-3.7337,3.7237l-35.9961,3.1532-2.4725.2202-18.8689,1.6617c-2.2022.1902-4.4144.1902-6.6166,0l-19.5896-1.7217-1.7518-.1502-36.0662-3.1632c-2.1321-.1902-3.7337-1.7918-3.6637-3.6637l.2302-5.3253.4605-10.5406c2.2623-23.944,22.1322-42.4526,49.4896-45.5757"/>
      <polygon class="cls-8" points="176.0864 109.6643 187.9809 41.815 188.051 41.4746 188.7918 36.9401 196.5896 35.5187 202.0001 34.5225 207.7508 35.5287 215.3884 36.9401 216.3194 41.7049 228.3216 109.6643 200.9334 112.2054 176.0864 109.6643"/>
      <path class="cls-8" d="M202.7758,128.7922h57.5077c2.9129,0,5.6056-1.3313,7.1171-3.5135l4.4845-6.0961,5.6056-7.6076c2.022-2.9229,1.0811-6.7167-2.1321-8.6387l-8.7788-5.2453"/>
      <path class="cls-8" d="M202.7758,128.7922h-59.0592c-2.9029,0-5.6056-1.3313-7.1171-3.5135l-4.1842-5.6857-.7508-1.021-5.1552-6.997c-2.022-2.9229-1.0811-6.7167,2.1321-8.6387l8.7788-5.2453"/>
      <path class="cls-21" d="M277.6996,62.3332c.6478,4.189-8.3818,19.9124-11.5602,22.5502,0,0-10.0053.1071-14.9647-13.4521,0,0,15.3841-2.3681,23.2922-11.47,0,0,2.5836-1.8312,3.2327,2.3719Z"/>
      <path class="cls-8" d="M251.1747,71.4314s15.3841-2.3681,23.2922-11.47c0,0,2.5836-1.8312,3.2327,2.3719.6478,4.189-8.3818,19.9124-11.5602,22.5502,0,0-10.0053.1071-14.9647-13.4521Z"/>
      <path class="cls-21" d="M172.3296,48.8956s-33.2147,14.7804-30.2846,52.5169l7.0457,1.3469s-3.1005-31.7294,23.2389-53.8638Z"/>
      <path class="cls-21" d="M128.6081,59.5667c8.2879,8.7514,23.7704,10.4586,23.7704,10.4586-4.3642,13.7538-14.3738,14.0754-14.3738,14.0754-3.2794-2.5-12.9898-17.811-12.519-22.0259.4643-4.2226,3.1225-2.5081,3.1225-2.5081Z"/>
      <path class="cls-8" d="M152.3785,70.0253s-15.4825-1.7072-23.7704-10.4586c0,0-2.6581-1.7145-3.1225,2.5081-.4708,4.2149,9.2396,19.5259,12.519,22.0259,0,0,10.0097-.3216,14.3738-14.0754Z"/>
      <path class="cls-16" d="M130.3031,71.2022l3.985,6.4476,2.4178,3.2686,1.7014,1.8805s1.8297-.2963,2.2835-.5373c1.4757-.6392,2.8656-1.5671,2.8656-1.5671,0,0-5.9273-2.314-7.1942-3.3424s-6.0591-6.1499-6.0591-6.1499Z"/>
      <path class="cls-16" d="M255.4811,77.0597s-.7765-1.2-1.3412-2.0471-1.2532-2.5609-1.2532-2.5609l6.6179-1.9567,4.5176-1.6941,3.6-1.8353-12.1412,10.0941Z"/>
      <polygon class="cls-21" points="133.6696 113.1538 141.8578 124.4479 176.8695 125.0126 133.6696 113.1538"/>
      <polyline class="cls-21" points="177.5453 108.4878 189.9221 38.048 202.204 35.8291 200.8864 110.6054"/>
    </g>
    <g>
      <path class="cls-3" d="M227.1255,77.034c0,13.3413-10.8143,24.1549-24.1556,24.1549s-24.1556-10.8136-24.1556-24.1549,10.8156-24.1556,24.1556-24.1556,24.1556,10.8156,24.1556,24.1556"/>
      <path class="cls-21" d="M203.3769,67.9803l6.2516,15.4282-9.4424-7.4372,3.1908-7.991ZM214.4818,86.9627l-9.6154-23.1395c-.2741-.6679-.823-1.0209-1.4895-1.0209-.6672,0-1.2556.353-1.5304,1.0209l-10.5533,25.3814h3.6103l4.1772-10.4654,12.4671,10.0723c.5018.4056.8631.589,1.3338.589.9413,0,1.765-.7067,1.765-1.7255,0-.1661-.0588-.4291-.1647-.7122"/>
    </g>
    <g>
      <path class="cls-21" d="M136.9151,164.9012c-.1669,0-.3359-.0418-.4911-.1297-.4796-.2716-.6513-.8767-.3829-1.3577.0673-.1201.7-1.2116,2.2388-2.4981,1.5197-1.2708,3.2517-1.5791,3.3246-1.5916.5449-.0927,1.0636.2731,1.1571.8184.0932.5444-.2711,1.0611-.8145,1.1563-.0303.0056-1.2975.2481-2.3817,1.1544-1.2571,1.0514-1.7719,1.9339-1.7771,1.9427-.1857.3232-.5248.505-.8732.5053Z"/>
      <polygon class="cls-21" points="75.4104 180.0623 134.9868 161.9917 163.5044 245.568 105.9045 264.768 75.4104 180.0623"/>
      <path d="M141.457,270.7217l-.0481,1.8423-2.784-.0372c-.0445-.3565.172-1.2312.5693-1.3169l2.2629-.4881Z"/>
      <path d="M138.978,141.526l3.9125.832c1.8213,1.2423,4.2953,3.5394,5.0938,5.8333l7.5962,21.8201,1.0674,2.4891.9631,4.1781c.3636,1.5774.5788,4.4445,2.2299,4.8836l1.1554,4.7221,16.581,49.4165c-.4571,2.2803-.2706,4.3097-.2466,6.9037,3.6664,1.9499,2.8905,5.7143,2.9484,8.9392.0672,3.7402-.9961,6.2206-4.8201,7.3895l-14.4745,4.4241-8.0305,2.8706-8.5812,3.9775-2.916.5164-2.2629.4881c-.3973.0857-.6137.9604-.5693,1.3169l-32.7776,11.0167c-4.535,1.5242-10.6675.2538-12.3054-4.527l-5.4481-15.9018c.7278-.0497,1.6451-.3264,1.778-.8584l.5923-2.3704.7782.1534,3.9587,13.424c.5488,1.6827,1.2497,3.5151,2.1388,5.0727.8727,1.5288,4.1129,2.8232,6.118,2.1534l71.3158-23.8212c2.9922-.9995,4.9665-4.4577,3.9404-7.4669l-3.6293-10.6437-15.3394-45.2821-15.1199-44.5964c-.937-2.7636-4.5318-4.2083-6.9675-3.3786l-10.3847,3.5376-2.7887.9502,2.2728,4.9002,1.6732,2.6376-.7726,4.1282-45.006,14.8474-2.5594-3.269c.1577-.7184.3506-2.2214.218-2.9111l-1.0464-5.4404-13.8044,4.5891c-1.9552.65-3.9656,4.2407-3.2119,6.4816l7.8232,22.765-.1758,1.0032c-.3761-1.0788-2.5865-2.1054-3.9101-1.8401l-6.7373-20.0255c-1.6128-4.7938.9598-10.08,5.8136-11.764l15.054-5.2228,2.4356.5006c-1.081,1.6293.1363,5.4816.7144,7.242l1.3731,4.1806,39.4382-13.1692c.0592-.9134-.1873-2.4135-.5627-3.4239-.8974-2.4152-1.701-5.7961-4.3045-6.9847-2.1862-.9981-5.3594.5309-7.483,1.1076l-2.5689.6977c-1.0135.2753-3.0321-11.4836-12.532-8.9919l-1.0919-2.7992c6.3321-1.91,12.653,1.0925,15.1192,8.3214,3.9965-2.8187,7.6591-1.5145,11.2907-.6771l17.0344-5.3454Z"/>
      <path d="M95.5337,139.2271l1.0919,2.7992c-5.2875,1.3868-7.0248,7.4766-5.1333,12.1047,2.0375,4.9854-5.8173,2.5285-8.9413,7.2372l-2.4356-.5006c.1511-3.0251,2.5697-4.0948,5.0916-5.3097l2.4931-1.201c.4918-.2369-2.5044-12.0116,7.8337-15.1299Z"/>
      <path class="cls-21" d="M90.7484,234.3618l.9382-5.0823c1.5168-8.2164-2.3333-16.3604-9.5754-19.4152l-.8861-4.3479-9.7602-29.4074,8.6277-2.8763,2.5594,3.269,45.006-14.8474.7726-4.1282,8.9639-2.944,31.8574,93.6144-65.9165,22.0911-11.023-33.3359-1.5641-2.5899ZM109.2474,182.8857l25.1283-8.3139c.9183-.3038,2.145-2.2658,1.7345-3.0694-.3524-.6899-2.1692-1.3338-3.1456-1.0097l-25.156,8.3479c-.8729.2897-1.7156,2.2832-1.2804,2.9785.3626.5793,2.0138,1.3,2.7193,1.0666ZM104.8664,194.3254l-4.6902-14.4481c-.3669-1.1302-2.5862-2.41-3.7828-1.9878l-14.4789,5.1092,5.7182,17.0051,17.2336-5.6784ZM111.6994,191.8522l26.1209-8.6831c.7285-.6333,1.6103-2.1307,1.3338-2.8672s-2.1935-1.3147-2.9611-1.059l-24.8732,8.2862c-.8868.2954-2.5724,1.8096-2.1021,2.4871.3919.5645,1.6226,1.4148,2.4816,1.836ZM141.3635,187.4766l-52.6617,17.6285,1.384,4.1343,52.6617-17.6285-1.384-4.1343ZM95.3597,217.0993l29.4029-9.7047c.8274-.1861,2.0617-2.4502,1.4639-3.0757-.4981-.5212-1.7079-.8819-2.6886-1.0361l-29.6565,9.8491c-.751.637-1.6917,2.0171-1.4958,2.7744s2.1339,1.3002,2.974,1.1929ZM124.4083,252.5713c1.1806.6596,3.1202-.1084,3.7834-1.4754l20.4521-42.1528c-3.451-3.0526-6.9081-5.0962-11.3802-6.1057l-16.1544,32.5489-13.0265-6.922c-2.6669,4.1269-4.4278,7.3619-5.755,11.7705l22.0805,12.3363Z"/>
      <path class="cls-17" d="M154.71,196.2306l14.5317,43.2051,3.3034,10.6502-54.4985,18.5781-14.0462,4.6195c-1.5732.5174-3.2483-.6983-3.7043-2.1183l-4.8098-14.9772-2.8585-8.2374-4.0616-11.6701c.4981-.6547,1.6602-1.5822,2.1824-1.9187l1.5641,2.5899,11.023,33.3359,65.9165-22.0911-31.8574-93.6144-8.9639,2.944-1.6732-2.6376,3.868-1.4771.7038-.1342,1.1288-.5514,7.1198-1.5082,15.1321,45.0131Z"/>
      <path class="cls-2" d="M175.0848,238.7575l3.6293,10.6437c1.0261,3.0092-.9481,6.4674-3.9404,7.4669l-71.3158,23.8212c-2.0051.6698-5.2454-.6246-6.118-2.1534-.8891-1.5576-1.59-3.39-2.1388-5.0727l5.095-2.2982c.456,1.42,2.1311,2.6357,3.7043,2.1183l14.0462-4.6195,54.4985-18.5781-3.3034-10.6502,5.8431-.6782Z"/>
      <path class="cls-25" d="M123.514,156.1976l-40.2486,12.4125c-.5781-1.7603-1.7954-5.6127-.7144-7.242,3.124-4.7087,10.9789-2.2518,8.9413-7.2372-1.8915-4.6281-.1542-10.7179,5.1333-12.1047,9.5-2.4916,11.5186,9.2672,12.532,8.9919l2.5689-.6977c2.1236-.5768,5.2967-2.1057,7.483-1.1076,2.6035,1.1886,3.4071,4.5695,4.3045,6.9847ZM103.5797,149.5826c0-2.6244-2.1275-4.7519-4.7519-4.7519s-4.7519,2.1275-4.7519,4.7519,2.1275,4.7519,4.7519,4.7519,4.7519-2.1275,4.7519-4.7519Z"/>
      <path class="cls-26" d="M159.7455,193.4754l-5.0354,2.7552-15.1321-45.0131-7.1198,1.5082-1.1288.5514-.7038.1342c-.2575-1.6288-1.7254-3.1031-3.3521-4.3732l10.3847-3.5376c2.4357-.8297,6.0305.615,6.9675,3.3786l15.1199,44.5964Z"/>
      <polygon class="cls-2" points="175.0848 238.7575 169.2417 239.4357 154.71 196.2306 159.7455 193.4754 175.0848 238.7575"/>
      <path class="cls-26" d="M80.3106,170.3215l-11.9589,3.8731c.2652,2.2468.8331,4.4975,1.5934,6.7653l4.6703,13.9302c-.7562.0085-3.3702-.049-3.6073.7335l-.9371,3.0932-7.8232-22.765c-.7537-2.2409,1.2567-5.8316,3.2119-6.4816l13.8044-4.5891,1.0464,5.4404Z"/>
      <path class="cls-19" d="M123.514,156.1976c.3754,1.0104.6219,2.5105.5627,3.4239l-39.4382,13.1692-1.3731-4.1806,40.2486-12.4125Z"/>
      <path class="cls-17" d="M80.3106,170.3215c.1327.6898-.0602,2.1927-.218,2.9111l-8.6277,2.8763,9.7602,29.4074.8861,4.3479-3.5577-.9112-.4949-3.77-3.4432-10.293-4.6703-13.9302c-.7603-2.2677-1.3282-4.5185-1.5934-6.7653l11.9589-3.8731Z"/>
      <path class="cls-2" d="M100.2961,271.1651l-5.095,2.2982-3.9587-13.424c2.0379.0613,3.5904-1.7765,4.2439-3.8514l4.8098,14.9772Z"/>
      <path class="cls-2" d="M92.6277,247.9506l2.8585,8.2374c-.6535,2.0749-2.206,3.9127-4.2439,3.8514l-.7782-.1534c.0306-.1225.0225-.3914-.0247-.5257l-.709-1.6705-.0643-.5343-.6339-1.6488-1.3257-5.0242.6272-3.6875,4.294,1.1556Z"/>
      <path class="cls-2" d="M127.2734,149.038c1.6267,1.2702,3.0946,2.7445,3.3521,4.3732l-3.868,1.4771-2.2728-4.9002,2.7887-.9502Z"/>
      <path class="cls-26" d="M74.6154,194.8901l3.4432,10.293.4949,3.77-5.7084-.7723-2.95-8.4607.1758-1.0032.9371-3.0932c.2371-.7825,2.851-.725,3.6073-.7335Z"/>
      <polygon class="cls-2" points="92.6277 247.9506 88.3337 246.7949 87.7065 250.4824 84.7131 241.3454 88.5661 236.2805 92.6277 247.9506"/>
      <path class="cls-18" d="M90.4394,259.3603l-.709-1.6705.709,1.6705Z"/>
      <path class="cls-18" d="M89.6661,257.1554l-.6339-1.6488.6339,1.6488Z"/>
      <rect class="cls-11" x="87.9577" y="196.1781" width="55.534" height="4.3598" transform="translate(-56.9808 46.9945) rotate(-18.508)"/>
      <path class="cls-11" d="M95.3597,217.0993c-.8401.1072-2.7781-.4356-2.974-1.1929s.7448-2.1374,1.4958-2.7744l29.6565-9.8491c.9807.1542,2.1905.5149,2.6886,1.0361.5978.6255-.6365,2.8896-1.4639,3.0757l-29.4029,9.7047Z"/>
      <path class="cls-11" d="M109.2474,182.8857c-.7055.2334-2.3566-.4873-2.7193-1.0666-.4352-.6953.4076-2.6889,1.2804-2.9785l25.156-8.3479c.9765-.324,2.7932.3199,3.1456,1.0097.4106.8036-.8162,2.7655-1.7345,3.0694l-25.1283,8.3139Z"/>
      <path class="cls-11" d="M111.6994,191.8522c-.859-.4212-2.0897-1.2715-2.4816-1.836-.4703-.6775,1.2153-2.1917,2.1021-2.4871l24.8732-8.2862c.7676-.2557,2.6847.3225,2.9611,1.059s-.6054,2.2339-1.3338,2.8672l-26.1209,8.6831Z"/>
      <path class="cls-14" d="M131.3293,153.277l1.1288-.5514-1.1288.5514Z"/>
      <path class="cls-19" d="M103.5797,149.5826c0,2.6244-2.1275,4.7519-4.7519,4.7519s-4.7519-2.1275-4.7519-4.7519,2.1275-4.7519,4.7519-4.7519,4.7519,2.1275,4.7519,4.7519ZM100.7608,149.6334c0-1.1021-.8935-1.9956-1.9956-1.9956s-1.9956.8935-1.9956,1.9956.8935,1.9956,1.9956,1.9956,1.9956-.8935,1.9956-1.9956Z"/>
      <path class="cls-12" d="M93.7564,199.0741l-8.7901-4.911c.5284-1.7551,1.2294-3.0429,2.291-4.6858l5.1857,2.7556,6.4309-12.9575c1.7803.4019,3.1566,1.2154,4.5304,2.4306l-8.1418,16.7807c-.264.5442-1.0362.8499-1.5061.5873ZM86.4284,193.4765l7.687,4.3587,7.6976-15.7433-2.3537-1.3474-6.4957,13.2892-5.2308-2.9576-1.3043,2.4004Z"/>
      <polygon class="cls-15" points="86.4284 193.4765 87.7327 191.0761 92.9636 194.0337 99.4593 180.7445 101.813 182.0919 94.1154 197.8352 86.4284 193.4765"/>
      <circle class="cls-21" cx="98.7653" cy="149.6334" r="1.9956"/>
      <path d="M69.8952,199.72l2.95,8.4607,5.7084.7723,3.5577.9112c7.2421,3.0548,11.0922,11.1988,9.5754,19.4152l-.9382,5.0823c-.5222.3365-1.6843,1.264-2.1824,1.9187l-3.853,5.0649,2.9935,9.137,1.3257,5.0242.6339,1.6488.0643.5343.709,1.6705c.0472.1343.0553.4032.0247.5257l-.5923,2.3704c-.1329.532-1.0502.8087-1.778.8584l-6.3437-19.4052c-12.7224-.4934-20.3623-12.8828-18.5528-24.6615.6594-4.2924,3.101-7.3556,6.5931-9.8576l-3.8053-11.3105c1.3236-.2653,3.5339.7613,3.9101,1.8401ZM69.2074,213.6613c-5.4503,8.0535-2.5404,18.7267,5.2158,24.1652,1.3918.9759,3.1956,1.8632,4.7196,2.1414,3.5898.6552,11.9587-10.5269,8.5994-19.1419l-10.0434-.544c2.0978-1.899,4.3872-2.6227,7.9413-3.4794-3.9337-4.8658-11.2434-6.8078-16.4326-3.1412Z"/>
      <path class="cls-20" d="M74.4232,237.8265l.1328-2.1189c-3.89-6.3881-5.6797-13.4442-4.7314-20.9134l-.6172-1.133c5.1892-3.6666,12.4989-1.7246,16.4326,3.1412-3.5541.8568-5.8435,1.5805-7.9413,3.4794l10.0434.544c3.3593,8.615-5.0096,19.7971-8.5994,19.1419-1.524-.2781-3.3278-1.1654-4.7196-2.1414Z"/>
      <path class="cls-22" d="M74.4232,237.8265c-7.7562-5.4385-10.6661-16.1118-5.2158-24.1652l.6172,1.133c-.9484,7.4692.8414,14.5253,4.7314,20.9134l-.1328,2.1189Z"/>
      <path d="M182.2334,254.8777l-4.1979,4.4071-32.8871,11.1179c-.2409-.0782-.6066-.2273-.7754-.1974l8.5812-3.9775,8.0305-2.8706,14.4745-4.4241c3.824-1.1688,4.8873-3.6492,4.8201-7.3895-.0579-3.2249.718-6.9893-2.9484-8.9392-.024-2.594-.2105-4.6233.2466-6.9037l4.2734,12.0552.3826,7.1217Z"/>
      <rect class="cls-11" x="100.9577" y="234.1781" width="55.534" height="4.3598" transform="translate(-68.3711 53.0865) rotate(-18.508)"/>
      <path class="cls-11" d="M122.2474,220.8857c-.7055.2334-2.3566-.4873-2.7193-1.0666-.4352-.6953.4076-2.6889,1.2804-2.9785l25.156-8.3479c.9765-.324,2.7932.3199,3.1456,1.0097.4106.8036-.8162,2.7655-1.7345,3.0694l-25.1283,8.3139Z"/>
      <path class="cls-11" d="M124.6994,229.8522c-.859-.4212-2.0897-1.2715-2.4816-1.836-.4703-.6775,1.2153-2.1917,2.1021-2.4871l24.8732-8.2862c.7676-.2557,2.6847.3225,2.9611,1.059s-.6054,2.2339-1.3338,2.8672l-26.1209,8.6831Z"/>
      <path class="cls-4" d="M104.316,228.9678l-5.7732-2.311,1.6354-4.0856,5.7732,2.311,2.3719-5.9254,4.39,1.7573-2.3719,5.9254,5.7732,2.311-1.6354,4.0856-5.7732-2.311-2.3719,5.9254-4.39-1.7573,2.3719-5.9254Z"/>
    </g>
    <g>
      <path class="cls-20" d="M113.4823,251.7396l4.7873,1.3198c1.8756.5171,3.8077-.6122,4.3155-2.5223l1.317-4.9543c.2975-1.1193,1.2559-1.9411,2.3925-2.0099,9.8096-.5933,20.5835,5.516,27.0735,16.3891,8.6663,14.5191,6.4119,32.0336-5.0353,39.1197-11.4472,7.0861-27.7523,1.0604-36.4186-13.4587-6.6723-11.1784-6.8696-24.1311-1.3835-32.7342.6344-.9949,1.8273-1.4592,2.9516-1.1493Z"/>
      <path class="cls-27" d="M155.8194,264.81c.0002.0035,1.0528,21.0879-13.818,27.9629-6.8235,3.1546-14.3868,3.7582-20.5757,3.4884,8.4899,6.3137,18.8897,7.7834,26.907,2.8205,10.1967-6.312,13.0993-20.8985,7.4866-34.2718Z"/>
      <path class="cls-9" d="M113.4823,251.7396l4.7873,1.3198c1.8756.5171,3.8077-.6122,4.3155-2.5223l1.317-4.9543c.2975-1.1193,1.2559-1.9411,2.3925-2.0099,9.8096-.5933,20.5835,5.516,27.0735,16.3891,8.6663,14.5191,6.4119,32.0336-5.0353,39.1197-11.4472,7.0861-27.7523,1.0604-36.4186-13.4587-6.6723-11.1784-6.8696-24.1311-1.3835-32.7342.6344-.9949,1.8273-1.4592,2.9516-1.1493Z"/>
    </g>
  </g>
</svg>